<svg xmlns="http://www.w3.org/2000/svg" viewBox="0 0 300 380" fill="white">

  <!-- Trunk — natural taper from base to canopy -->
  <path d="M 143 258
           C 141 285 139 315 136 358
           L 164 358
           C 161 315 159 285 157 258 Z"
        opacity="0.55"/>

  <!-- Root flares -->
  <path d="M 138 352 Q 112 358 86 368"
        stroke="white" stroke-width="5" fill="none"
        opacity="0.32" stroke-linecap="round"/>
  <path d="M 162 352 Q 188 358 214 368"
        stroke="white" stroke-width="5" fill="none"
        opacity="0.32" stroke-linecap="round"/>

  <!-- Canopy — single solid silhouette of a large spreading oak.
       Two main upper lobes suggest major branch clusters,
       wide spread at mid-height, narrowing toward the trunk. -->
  <path d="
    M 150 260
    Q 202 253 240 227
    Q 272 205 276 168
    Q 280 132 258 106
    Q 246 89 230 73
    Q 246 52 228 30
    Q 210 11 186 18
    Q 173  5 150  3
    Q 127  5 114 18
    Q  90 11  72 30
    Q  54 52  70 73
    Q  54 89  42 106
    Q  20 132  24 168
    Q  28 205  60 227
    Q  98 253 150 260 Z
  " opacity="0.22"/>

</svg>
