<svg xmlns="http://www.w3.org/2000/svg" viewBox="0 0 64 64" role="img" aria-label="Dragon blood tree">
  <circle cx="32" cy="32" r="30" fill="#f3efe3"/>
  <circle cx="32" cy="32" r="26.8" fill="none" stroke="#123426" stroke-width="3"/>
  <circle cx="32" cy="32" r="22.8" fill="none" stroke="#b3263a" stroke-width="1.4"/>

  <path d="M32 52V30" stroke="#123426" stroke-width="5.6" stroke-linecap="round"/>
  <path d="M32 36c-5 3.7-9.7 6.1-14.2 7.2" stroke="#123426" stroke-width="2.6" stroke-linecap="round" fill="none"/>
  <path d="M32 36c5 3.7 9.7 6.1 14.2 7.2" stroke="#123426" stroke-width="2.6" stroke-linecap="round" fill="none"/>
  <path d="M32 45c-3.7 2.7-7.2 4.4-10.5 5.1" stroke="#123426" stroke-width="2.2" stroke-linecap="round" fill="none"/>
  <path d="M32 45c3.7 2.7 7.2 4.4 10.5 5.1" stroke="#123426" stroke-width="2.2" stroke-linecap="round" fill="none"/>

  <path d="M13.5 25.5c2.4-10.4 9-15.6 18.5-15.6s16.1 5.2 18.5 15.6c-5.4 4.2-11.5 6.2-18.5 6.2s-13.1-2-18.5-6.2Z" fill="#123426"/>
  <path d="M17.4 23.7c4.2 2.3 9.1 3.5 14.6 3.5s10.4-1.2 14.6-3.5c-.9 3.6-2.8 6.3-5.7 8.1-3.1 2-6 2-8.9.2-2.9 1.8-5.8 1.8-8.9-.2-2.9-1.8-4.8-4.5-5.7-8.1Z" fill="#2f6f50"/>
  <path d="M32 11.8c-2.7 5.1-2.7 11.9 0 20.2 2.7-8.3 2.7-15.1 0-20.2Z" fill="#69a86f"/>
</svg>
