<svg xmlns="http://www.w3.org/2000/svg" viewBox="0 0 64 64" role="img" aria-label="Dragon blood tree">
  <rect width="64" height="64" rx="8" fill="#f7faf5"/>
  <path d="M32 53c-2.7-6.5-3.4-14.4-2.2-23.6h4.4C35.4 38.6 34.7 46.5 32 53Z" fill="#7d1d2c"/>
  <path d="M31.7 32.6c-4.4-3.7-8.1-7.7-11.1-12.1" stroke="#7d1d2c" stroke-width="3.2" stroke-linecap="round" fill="none"/>
  <path d="M32.3 32.6c4.6-3.7 8.4-7.8 11.4-12.4" stroke="#7d1d2c" stroke-width="3.2" stroke-linecap="round" fill="none"/>
  <path d="M22 22.4c-3.1-1.7-5.6-3.9-7.5-6.7" stroke="#7d1d2c" stroke-width="2.1" stroke-linecap="round" fill="none"/>
  <path d="M42 22.4c3.1-1.7 5.6-3.9 7.5-6.7" stroke="#7d1d2c" stroke-width="2.1" stroke-linecap="round" fill="none"/>
  <path d="M19 13.5c7.6-7 18.4-7 26 0 5.5 5.1 6.7 12.1 3 17.2-3.6 4.9-10.8 6.5-16 3.4-5.2 3.1-12.4 1.5-16-3.4-3.7-5.1-2.5-12.1 3-17.2Z" fill="#2f6f50"/>
  <path d="M17.4 19.1c7.3 4.1 21.9 4.1 29.2 0 0 4-1.5 7.2-4.5 9.5-4.3 3.2-9.4 2-10.1 1.8-.7.2-5.8 1.4-10.1-1.8-3-2.3-4.5-5.5-4.5-9.5Z" fill="#69a86f"/>
  <path d="M32 11c-3 5.4-3 12.8 0 22.1 3-9.3 3-16.7 0-22.1Z" fill="#9ccf87" opacity=".72"/>
  <path d="M38.8 45.6c2.6 2.7 5.5 4.4 8.7 5.2-3.5 1.8-7.8 1.6-12.9-.5 2.1-.7 3.5-2.3 4.2-4.7Z" fill="#b3263a"/>
</svg>
